<?xml version="1.0" encoding="iso-8859-1"?>
<!-- Uploaded to: SVG Repo, www.svgrepo.com, Generator: SVG Repo Mixer Tools -->
<svg height="800px" width="800px" version="1.1" id="Layer_1" xmlns="http://www.w3.org/2000/svg" xmlns:xlink="http://www.w3.org/1999/xlink" 
	 viewBox="0 0 511.995 511.995" xml:space="preserve">
<circle style="fill:#3A99D7;" cx="255.997" cy="255.997" r="255.997"/>
<path style="fill:#2682BF;" d="M300.549,508.102L151.879,361.324l21.96-20.641l-38.415-20.412
	c-5.103-72.758,5.217-144.885,86.289-149.93v17.258l68.515-50.684l5.791,5.963l7.397-5.446l-34.802-28.266l98.845,49.537
	l140.929,139.954C490.5,405.185,406.79,489.467,300.492,508.102H300.549z"/>
<circle style="fill:#00CC96;" cx="255.997" cy="255.997" r="255.997"/>
<path style="fill:#07B587;" d="M507.757,302.556c-18.978,103.318-99.992,184.905-202.965,204.743l-48.334-48.333l1.147-22.475
	l-68.228-68.228l77.861-119.715l9.117-177.336l231.344,231.343H507.757z"/>
<path style="fill:#C94545;" d="M292.923,278.475c0,0,35.089,33.369,36.35,52.518s-6.708,37.153-6.708,37.153
	s-33.427-22.819-41.568-24.94c4.759-23.909,11.925-64.788,11.925-64.788V278.475z"/>
<path style="fill:#E84F4F;" d="M219.077,278.589c0,0-35.089,33.369-36.35,52.518s6.708,37.153,6.708,37.153
	s33.427-22.819,41.568-24.94c-4.759-23.909-11.925-64.788-11.925-64.788L219.077,278.589L219.077,278.589z"/>
<path style="fill:#006775;" d="M253.764,53.723c-13.015,10.837-52.232,46.728-52.232,86.346c0,47.53,30.101,212.311,30.101,212.311
	h10.033l1.835,6.25h24.768l1.835-6.25h9.919c0,0,30.101-164.78,30.101-212.311c0-39.618-39.217-75.509-52.232-86.346
	c0-1.032-4.186-0.86-4.186,0C253.706,53.723,253.764,53.723,253.764,53.723z"/>
<path style="fill:#004F59;" d="M256.287,358.63h11.983l1.835-6.307h9.919c0,0,30.101-164.78,30.101-212.311
	c0-39.618-39.217-75.509-52.232-86.346c0-0.516-1.09-0.745-2.178-0.688L256.287,358.63z"/>
<path style="fill:#FFFFFF;" d="M247.17,356.508c0,0-13.302,2.466-9.346,30.388c3.956,27.979,18.691,69.662,18.691,72.07
	c0-2.466,14.735-44.148,18.691-72.07c3.956-27.922-9.346-30.388-9.346-30.388l-9.346-0.516L247.17,356.508z"/>
<path style="fill:#CCCCCC;" d="M256.459,459.022c0-2.466,14.735-44.148,18.691-72.07c3.956-27.979-9.346-30.388-9.346-30.388
	l-9.346-0.516h-0.172L256.459,459.022z"/>
<path style="fill:#E84F4F;" d="M253.764,53.723c-7.224,6.02-22.418,19.666-34.573,37.382c9.919,4.53,22.705,7.224,36.695,7.224
	s26.775-2.695,36.695-7.224c-12.155-17.717-27.349-31.362-34.573-37.382c0-0.401-0.745-0.63-1.605-0.688l0,0h-0.115l0,0h-0.115
	h-0.114h-0.115h-0.115h-0.115l0,0h-0.115l0,0c-0.975,0.057-1.892,0.286-1.892,0.688C253.705,53.723,253.764,53.723,253.764,53.723z"
	/>
<path style="fill:#C94545;" d="M255.828,98.271L255.828,98.271c13.99,0,26.775-2.695,36.695-7.224
	c-12.154-17.717-27.349-31.362-34.573-37.382c0-0.401-0.745-0.63-1.605-0.688l0,0h-0.115l0,0h-0.115H256h-0.115h-0.115h-0.115
	l0.115,45.295H255.828z"/>
<g>
	<path style="fill:#E84F4F;" d="M252.502,373.02c0,0-5.676,1.433-4.013,17.659c1.72,16.226,8.027,40.421,8.027,41.855
		c0-1.433,6.307-25.629,8.027-41.855s-4.013-17.659-4.013-17.659l-4.013-0.286L252.502,373.02z"/>
	<path style="fill:#E84F4F;" d="M256.459,432.133l0.057,0.401c0-1.433,6.307-25.629,7.97-41.855
		c1.72-16.226-4.013-17.659-4.013-17.659l-4.013-0.286h-0.172l0.115,59.399L256.459,432.133L256.459,432.133z"/>
</g>
<path style="fill:#FFFFFF;" d="M255.828,148.153c17.659,0,31.993,14.277,31.993,31.821c0,17.602-14.334,31.821-31.993,31.821
	s-31.936-14.277-31.936-31.821C223.893,162.372,238.227,148.153,255.828,148.153z"/>
<path style="fill:#CCCCCC;" d="M255.885,148.153c17.602,0.057,31.879,14.277,31.879,31.821S273.545,211.68,256,211.794
	L255.885,148.153z"/>
<path style="fill:#E84F4F;" d="M255.828,157.671c12.327,0,22.361,9.976,22.361,22.246s-9.976,22.246-22.361,22.246
	c-12.327,0-22.361-9.976-22.361-22.246S243.501,157.671,255.828,157.671z"/>
<path style="fill:#C94545;" d="M255.885,157.671c12.327,0.057,22.246,9.976,22.246,22.246c0,12.213-9.919,22.189-22.189,22.246
	L255.885,157.671z"/>
<path style="fill:#FFFFFF;" d="M255.828,168.105c6.593,0,11.925,5.332,11.925,11.868s-5.332,11.868-11.925,11.868
	c-6.593,0-11.925-5.332-11.925-11.868C243.902,173.438,249.234,168.105,255.828,168.105z"/>
<path style="fill:#CCCCCC;" d="M255.999,191.842l-0.057-23.737c6.536,0.057,11.811,5.332,11.811,11.868
	C267.754,186.453,262.537,191.728,255.999,191.842z"/>
</svg>